<?xml version="1.0" encoding="UTF-8"?>
<svg width="48px" height="52px" viewBox="0 0 48 52" version="1.1" xmlns="http://www.w3.org/2000/svg" xmlns:xlink="http://www.w3.org/1999/xlink">
    <title>Shape</title>
    <g id="Icon-Set" stroke="none" stroke-width="1" fill="none" fill-rule="evenodd">
        <g id="White-Background" transform="translate(-1087.000000, -3202.000000)" fill="#B4B4B4" fill-rule="nonzero">
            <g id="Black/UI/garbage" transform="translate(1079.000000, 3196.000000)">
                <path d="M50.6585454,20 L50.6585454,52 L48,52 L48,57.3333333 L16,57.3333333 L16,52 L13.3333333,52 L13.3333333,20 L8,20 L8,14.6666667 L56,14.6666667 L56,20 L50.6585454,20 Z M45.325212,20 L18.6666667,20 L18.6666667,52 L45.325212,52 L45.325212,20 Z M21.3333333,25.3333333 L26.6666667,25.3333333 L26.6666667,46.6666667 L21.3333333,46.6666667 L21.3333333,25.3333333 Z M29.3333333,25.3333333 L34.6666667,25.3333333 L34.6666667,46.6666667 L29.3333333,46.6666667 L29.3333333,25.3333333 Z M37.3333333,25.3333333 L42.6666667,25.3333333 L42.6666667,46.6666667 L37.3333333,46.6666667 L37.3333333,25.3333333 Z M18.6666667,6.66666667 L45.3333333,6.66666667 L45.3333333,12 L18.6666667,12 L18.6666667,6.66666667 Z" id="Shape"></path>
            </g>
        </g>
    </g>
</svg>